<?xml version="1.0" encoding="utf-8"?>
<!-- Generator: Adobe Illustrator 27.0.0, SVG Export Plug-In . SVG Version: 6.00 Build 0)  -->
<svg version="1.1" id="Layer_1" xmlns="http://www.w3.org/2000/svg" xmlns:xlink="http://www.w3.org/1999/xlink" x="0px" y="0px"
	 viewBox="0 0 225 39" style="enable-background:new 0 0 225 39;" xml:space="preserve">
<style type="text/css">
	.st0{fill:url(#Path_00000111913537663385292810000013568883187070971061_);}
	.st1{fill:url(#Path_00000049916476957242830760000009670876634428792481_);}
	.st2{fill:url(#Path_00000137112650921083548150000017225542468719597246_);}
	.st3{fill:url(#Path_00000152942684718987685450000001636414549495335868_);}
	.st4{fill:url(#Shape_00000004517857104247612070000005775932618575828395_);}
</style>
<g id="Page-1">
	<g id="_x30_1_x5F_LOGO_x5F_01" transform="translate(0.319154, 0.922879)">
		
			<linearGradient id="Path_00000058548603789299604810000001788157201867980695_" gradientUnits="userSpaceOnUse" x1="4.0201" y1="18.9133" x2="218.2595" y2="-4.4381">
			<stop  offset="0" style="stop-color:#E94429"/>
			<stop  offset="2.724962e-02" style="stop-color:#E9462B"/>
			<stop  offset="0.3384" style="stop-color:#EC593B"/>
			<stop  offset="0.6587" style="stop-color:#EE6445"/>
			<stop  offset="1" style="stop-color:#EF6848"/>
		</linearGradient>
		<path id="Path" style="fill:url(#Path_00000058548603789299604810000001788157201867980695_);" d="M31.2,1c0.4,0,0.8,0.1,1.1,0.4
			c0.3,0.3,0.5,0.7,0.5,1.1v5.3c0,0.4-0.2,0.8-0.5,1.1c-0.3,0.3-0.7,0.5-1.1,0.4H9.8c-0.2,0-0.3,0-0.4,0.2C9.2,9.7,9.1,9.9,9.2,10v6
			c0,0.2,0,0.3,0.2,0.4c0.1,0.1,0.3,0.2,0.4,0.1h15.8c0.9,0,1.6,0.7,1.6,1.6v4.4c0,0.4-0.2,0.8-0.4,1.1c-0.3,0.3-0.7,0.5-1.1,0.5
			H9.8c-0.4,0-0.6,0.2-0.6,0.6v10.3c0,0.4-0.1,0.8-0.4,1.1c-0.3,0.3-0.7,0.5-1.1,0.4h-6c-0.4,0-0.8-0.1-1.1-0.4S0,35.6,0,35.2V2.5
			c0-0.4,0.1-0.8,0.4-1.1S1.2,1,1.6,1H31.2z"/>
		
			<linearGradient id="Path_00000133531295663287089610000003457662629538611115_" gradientUnits="userSpaceOnUse" x1="4.5895" y1="24.1375" x2="218.8289" y2="0.7862">
			<stop  offset="0" style="stop-color:#E94429"/>
			<stop  offset="2.724962e-02" style="stop-color:#E9462B"/>
			<stop  offset="0.3384" style="stop-color:#EC593B"/>
			<stop  offset="0.6587" style="stop-color:#EE6445"/>
			<stop  offset="1" style="stop-color:#EF6848"/>
		</linearGradient>
		
			<path id="Path_00000039099636133157653570000003921738517395689388_" style="fill:url(#Path_00000133531295663287089610000003457662629538611115_);" d="
			M50.1,36.7c-0.4,0-0.8-0.1-1.1-0.4c-0.3-0.3-0.5-0.7-0.4-1.1V2.5c0-0.4,0.1-0.8,0.4-1.1C49.2,1.1,49.6,1,50.1,1h6
			c0.4,0,0.9,0.1,1.2,0.4s0.5,0.7,0.5,1.2v32.6c0,0.4-0.1,0.8-0.4,1.1c-0.3,0.3-0.7,0.5-1.1,0.4H50.1z"/>
		
			<linearGradient id="Path_00000106847366234897096250000012940119644507107246_" gradientUnits="userSpaceOnUse" x1="5.0981" y1="28.8032" x2="219.3375" y2="5.4519">
			<stop  offset="0" style="stop-color:#E94429"/>
			<stop  offset="2.724962e-02" style="stop-color:#E9462B"/>
			<stop  offset="0.3384" style="stop-color:#EC593B"/>
			<stop  offset="0.6587" style="stop-color:#EE6445"/>
			<stop  offset="1" style="stop-color:#EF6848"/>
		</linearGradient>
		
			<path id="Path_00000149363875498562114170000011730227553699575995_" style="fill:url(#Path_00000106847366234897096250000012940119644507107246_);" d="
			M74.7,19.7v-1.8C74.7,6,81.7,0,95.7,0c3.5-0.1,6.9,0.4,10.3,1.4c2.9,0.9,5.7,2.5,8,4.5c0.4,0.2,0.6,0.6,0.7,1
			c0.1,0.4-0.1,0.9-0.4,1.2l-3.7,4.6c-0.2,0.4-0.7,0.6-1.1,0.7s-0.9-0.1-1.2-0.5c-3.2-2.9-7.3-4.4-12.6-4.4
			c-7.9,0-11.8,3.1-11.8,9.4v2c0,3.4,1.1,5.8,3.4,7.2s5.5,2.2,9.7,2.2c3.1,0.1,6.2-0.4,9.1-1.4c0.3-0.1,0.5-0.3,0.5-0.6v-2.7
			c0-0.2,0-0.3-0.2-0.4c-0.1-0.1-0.3-0.2-0.4-0.2H92.8c-0.4,0-0.8-0.2-1.1-0.5s-0.5-0.7-0.5-1.1v-4.2c0-0.9,0.7-1.6,1.6-1.6h21.5
			c0.4,0,0.8,0.2,1.1,0.5s0.5,0.7,0.4,1.2v13c0.1,1.1-0.4,2.2-1.4,2.8c-4.2,2.6-10.5,3.8-18.7,3.8C81.7,37.7,74.7,31.7,74.7,19.7z"
			/>
		
			<linearGradient id="Path_00000173152236426188885590000005333014811069286307_" gradientUnits="userSpaceOnUse" x1="5.6884" y1="34.2194" x2="219.9278" y2="10.8681">
			<stop  offset="0" style="stop-color:#E94429"/>
			<stop  offset="2.724962e-02" style="stop-color:#E9462B"/>
			<stop  offset="0.3384" style="stop-color:#EC593B"/>
			<stop  offset="0.6587" style="stop-color:#EE6445"/>
			<stop  offset="1" style="stop-color:#EF6848"/>
		</linearGradient>
		
			<path id="Path_00000039846996277574780830000007331765323055606195_" style="fill:url(#Path_00000173152236426188885590000005333014811069286307_);" d="
			M131.1,18.8V2.5c0-0.4,0.2-0.8,0.5-1.1s0.7-0.5,1.1-0.5h6c0.4,0,0.8,0.1,1.1,0.4s0.5,0.7,0.5,1.1v16.3c0,3.8,0.9,6.4,2.6,8
			c2,1.7,4.6,2.5,7.2,2.3c6.8,0,10.1-3.4,10.1-10.3V2.5c0-0.4,0.1-0.8,0.4-1.1s0.7-0.5,1.1-0.4h6c0.4,0,0.8,0.1,1.2,0.4
			s0.5,0.7,0.5,1.1v16.3c0,12.6-6.5,18.9-19.4,18.9C137.4,37.7,131.1,31.4,131.1,18.8z"/>
		
			<linearGradient id="Shape_00000080905689031326659550000012976115325850747549_" gradientUnits="userSpaceOnUse" x1="6.3745" y1="40.5137" x2="220.6139" y2="17.1624">
			<stop  offset="0" style="stop-color:#E94429"/>
			<stop  offset="2.724962e-02" style="stop-color:#E9462B"/>
			<stop  offset="0.3384" style="stop-color:#EC593B"/>
			<stop  offset="0.6587" style="stop-color:#EE6445"/>
			<stop  offset="1" style="stop-color:#EF6848"/>
		</linearGradient>
		<path id="Shape" style="fill:url(#Shape_00000080905689031326659550000012976115325850747549_);" d="M188.6,36.7
			c-0.4,0-0.8-0.1-1.1-0.4s-0.5-0.7-0.4-1.1V2.5c0-0.4,0.1-0.8,0.4-1.1s0.7-0.5,1.1-0.4h21.1c4.7,0,8.2,0.9,10.6,2.8s3.5,5,3.5,9.4
			c0,5.9-2.4,9.7-7.2,11.4c-0.5,0.2-0.6,0.4-0.2,0.8l6.3,8c0.6,0.6,0.7,1.5,0.4,2.2c-0.4,0.8-1.2,1.2-2,1.1h-4.8
			c-1.1,0.2-2.1-0.3-2.7-1.3l-7.2-9.3c-0.2-0.2-0.4-0.3-0.7-0.3h-9.2c-0.4,0-0.6,0.2-0.6,0.6v8.8c0,0.4-0.2,0.9-0.5,1.1
			c-0.3,0.3-0.7,0.5-1.2,0.4L188.6,36.7z M209,17.7c3.8,0,5.6-1.5,5.6-4.6s-1.8-3.9-5.6-3.9h-12.5c-0.4,0-0.6,0.2-0.6,0.6v7.4
			c0,0.2,0,0.3,0.1,0.4c0.1,0.1,0.3,0.2,0.4,0.2H209z"/>
	</g>
</g>
</svg>
